<mxfile host="app.diagrams.net" modified="2023-05-02T11:28:21.580Z" agent="Mozilla/5.0 (Windows NT 10.0; Win64; x64) AppleWebKit/537.36 (KHTML, like Gecko) Chrome/112.0.0.0 Safari/537.36" etag="mH300jASTwiAAruUDHIL" version="21.2.1" type="github">
  <diagram name="Página-1" id="rC-ZMEh5qf5vtc32I4Vb">
    <mxGraphModel dx="1000" dy="546" grid="1" gridSize="10" guides="1" tooltips="1" connect="1" arrows="1" fold="1" page="1" pageScale="1" pageWidth="1169" pageHeight="827" math="0" shadow="0">
      <root>
        <mxCell id="0" />
        <mxCell id="1" parent="0" />
        <mxCell id="Wd9m8drCYMv4-uO5FXAj-5" style="edgeStyle=orthogonalEdgeStyle;rounded=0;orthogonalLoop=1;jettySize=auto;html=1;exitX=1;exitY=0.5;exitDx=0;exitDy=0;entryX=0.5;entryY=0;entryDx=0;entryDy=0;" edge="1" parent="1" source="Wd9m8drCYMv4-uO5FXAj-1" target="Wd9m8drCYMv4-uO5FXAj-3">
          <mxGeometry relative="1" as="geometry" />
        </mxCell>
        <mxCell id="Wd9m8drCYMv4-uO5FXAj-6" style="edgeStyle=orthogonalEdgeStyle;rounded=0;orthogonalLoop=1;jettySize=auto;html=1;exitX=0;exitY=0.5;exitDx=0;exitDy=0;" edge="1" parent="1" source="Wd9m8drCYMv4-uO5FXAj-1" target="Wd9m8drCYMv4-uO5FXAj-2">
          <mxGeometry relative="1" as="geometry" />
        </mxCell>
        <mxCell id="Wd9m8drCYMv4-uO5FXAj-1" value="Tipos de Diagramas" style="rounded=1;whiteSpace=wrap;html=1;fillColor=#e1d5e7;strokeColor=#9673a6;" vertex="1" parent="1">
          <mxGeometry x="570" y="40" width="120" height="60" as="geometry" />
        </mxCell>
        <mxCell id="Wd9m8drCYMv4-uO5FXAj-9" style="edgeStyle=orthogonalEdgeStyle;rounded=0;orthogonalLoop=1;jettySize=auto;html=1;entryX=0.5;entryY=0;entryDx=0;entryDy=0;" edge="1" parent="1" target="Wd9m8drCYMv4-uO5FXAj-7">
          <mxGeometry relative="1" as="geometry">
            <mxPoint x="330" y="220" as="sourcePoint" />
          </mxGeometry>
        </mxCell>
        <mxCell id="Wd9m8drCYMv4-uO5FXAj-12" style="edgeStyle=orthogonalEdgeStyle;rounded=0;orthogonalLoop=1;jettySize=auto;html=1;exitX=0.5;exitY=1;exitDx=0;exitDy=0;" edge="1" parent="1" source="Wd9m8drCYMv4-uO5FXAj-2" target="Wd9m8drCYMv4-uO5FXAj-10">
          <mxGeometry relative="1" as="geometry">
            <Array as="points">
              <mxPoint x="290" y="200" />
            </Array>
          </mxGeometry>
        </mxCell>
        <mxCell id="Wd9m8drCYMv4-uO5FXAj-13" style="edgeStyle=orthogonalEdgeStyle;rounded=0;orthogonalLoop=1;jettySize=auto;html=1;entryX=0.5;entryY=0;entryDx=0;entryDy=0;" edge="1" parent="1" target="Wd9m8drCYMv4-uO5FXAj-11">
          <mxGeometry relative="1" as="geometry">
            <mxPoint x="330" y="220" as="sourcePoint" />
          </mxGeometry>
        </mxCell>
        <mxCell id="Wd9m8drCYMv4-uO5FXAj-2" value="Diagramas de estructura" style="rounded=1;whiteSpace=wrap;html=1;fillColor=#f5f5f5;fontColor=#333333;strokeColor=#666666;" vertex="1" parent="1">
          <mxGeometry x="230" y="140" width="120" height="60" as="geometry" />
        </mxCell>
        <mxCell id="Wd9m8drCYMv4-uO5FXAj-27" style="edgeStyle=orthogonalEdgeStyle;rounded=0;orthogonalLoop=1;jettySize=auto;html=1;exitX=0.5;exitY=1;exitDx=0;exitDy=0;" edge="1" parent="1" source="Wd9m8drCYMv4-uO5FXAj-3">
          <mxGeometry relative="1" as="geometry">
            <mxPoint x="960" y="200" as="targetPoint" />
          </mxGeometry>
        </mxCell>
        <mxCell id="Wd9m8drCYMv4-uO5FXAj-3" value="Diagramas de Comportamiento" style="rounded=1;whiteSpace=wrap;html=1;fillColor=#f5f5f5;fontColor=#333333;strokeColor=#666666;" vertex="1" parent="1">
          <mxGeometry x="900" y="140" width="120" height="60" as="geometry" />
        </mxCell>
        <mxCell id="Wd9m8drCYMv4-uO5FXAj-7" value="Diagramas de Clases" style="rounded=1;whiteSpace=wrap;html=1;" vertex="1" parent="1">
          <mxGeometry x="40" y="270" width="120" height="60" as="geometry" />
        </mxCell>
        <mxCell id="Wd9m8drCYMv4-uO5FXAj-18" style="edgeStyle=orthogonalEdgeStyle;rounded=0;orthogonalLoop=1;jettySize=auto;html=1;entryX=0.5;entryY=0;entryDx=0;entryDy=0;" edge="1" parent="1">
          <mxGeometry relative="1" as="geometry">
            <mxPoint x="201" y="220" as="sourcePoint" />
            <mxPoint x="201" y="354" as="targetPoint" />
          </mxGeometry>
        </mxCell>
        <mxCell id="Wd9m8drCYMv4-uO5FXAj-10" value="Diagramas de Despliegue" style="rounded=1;whiteSpace=wrap;html=1;" vertex="1" parent="1">
          <mxGeometry x="230" y="270" width="120" height="60" as="geometry" />
        </mxCell>
        <mxCell id="Wd9m8drCYMv4-uO5FXAj-11" value="Diagramas de Objetos" style="rounded=1;whiteSpace=wrap;html=1;" vertex="1" parent="1">
          <mxGeometry x="410" y="270" width="120" height="60" as="geometry" />
        </mxCell>
        <mxCell id="Wd9m8drCYMv4-uO5FXAj-14" value="Diagramas de Componentes" style="rounded=1;whiteSpace=wrap;html=1;" vertex="1" parent="1">
          <mxGeometry x="140" y="354" width="120" height="60" as="geometry" />
        </mxCell>
        <mxCell id="Wd9m8drCYMv4-uO5FXAj-15" value="Diagramas de Estructura" style="rounded=1;whiteSpace=wrap;html=1;" vertex="1" parent="1">
          <mxGeometry x="310" y="354" width="120" height="60" as="geometry" />
        </mxCell>
        <mxCell id="Wd9m8drCYMv4-uO5FXAj-16" value="Diagramas de Paquetes" style="rounded=1;whiteSpace=wrap;html=1;" vertex="1" parent="1">
          <mxGeometry x="500" y="354" width="120" height="60" as="geometry" />
        </mxCell>
        <mxCell id="Wd9m8drCYMv4-uO5FXAj-17" value="" style="endArrow=classic;html=1;rounded=0;" edge="1" parent="1" target="Wd9m8drCYMv4-uO5FXAj-15">
          <mxGeometry width="50" height="50" relative="1" as="geometry">
            <mxPoint x="370" y="220" as="sourcePoint" />
            <mxPoint x="330" y="250" as="targetPoint" />
          </mxGeometry>
        </mxCell>
        <mxCell id="Wd9m8drCYMv4-uO5FXAj-20" value="" style="endArrow=classic;html=1;rounded=0;entryX=0.5;entryY=0;entryDx=0;entryDy=0;" edge="1" parent="1" target="Wd9m8drCYMv4-uO5FXAj-16">
          <mxGeometry width="50" height="50" relative="1" as="geometry">
            <mxPoint x="470" y="220" as="sourcePoint" />
            <mxPoint x="350" y="190" as="targetPoint" />
            <Array as="points">
              <mxPoint x="560" y="220" />
            </Array>
          </mxGeometry>
        </mxCell>
        <mxCell id="Wd9m8drCYMv4-uO5FXAj-21" value="Diagramas de Despliegue" style="rounded=1;whiteSpace=wrap;html=1;" vertex="1" parent="1">
          <mxGeometry x="820" y="270" width="120" height="60" as="geometry" />
        </mxCell>
        <mxCell id="Wd9m8drCYMv4-uO5FXAj-22" value="Diagramas de Objetos" style="rounded=1;whiteSpace=wrap;html=1;" vertex="1" parent="1">
          <mxGeometry x="1000" y="270" width="120" height="60" as="geometry" />
        </mxCell>
        <mxCell id="Wd9m8drCYMv4-uO5FXAj-23" value="Diagramas de Interacción" style="rounded=1;whiteSpace=wrap;html=1;" vertex="1" parent="1">
          <mxGeometry x="720" y="354" width="120" height="60" as="geometry" />
        </mxCell>
        <mxCell id="Wd9m8drCYMv4-uO5FXAj-24" value="Diagramas de Paquetes" style="rounded=1;whiteSpace=wrap;html=1;" vertex="1" parent="1">
          <mxGeometry x="910" y="354" width="120" height="60" as="geometry" />
        </mxCell>
        <mxCell id="Wd9m8drCYMv4-uO5FXAj-31" value="" style="endArrow=classic;html=1;rounded=0;entryX=0.5;entryY=0;entryDx=0;entryDy=0;" edge="1" parent="1" target="Wd9m8drCYMv4-uO5FXAj-21">
          <mxGeometry width="50" height="50" relative="1" as="geometry">
            <mxPoint x="880" y="230" as="sourcePoint" />
            <mxPoint x="1000" y="200" as="targetPoint" />
          </mxGeometry>
        </mxCell>
        <mxCell id="Wd9m8drCYMv4-uO5FXAj-32" value="" style="endArrow=classic;html=1;rounded=0;entryX=0.417;entryY=-0.067;entryDx=0;entryDy=0;entryPerimeter=0;" edge="1" parent="1" target="Wd9m8drCYMv4-uO5FXAj-24">
          <mxGeometry width="50" height="50" relative="1" as="geometry">
            <mxPoint x="960" y="230" as="sourcePoint" />
            <mxPoint x="890" y="280" as="targetPoint" />
          </mxGeometry>
        </mxCell>
        <mxCell id="Wd9m8drCYMv4-uO5FXAj-33" value="" style="endArrow=classic;html=1;rounded=0;entryX=0.5;entryY=0;entryDx=0;entryDy=0;" edge="1" parent="1" target="Wd9m8drCYMv4-uO5FXAj-22">
          <mxGeometry width="50" height="50" relative="1" as="geometry">
            <mxPoint x="960" y="230" as="sourcePoint" />
            <mxPoint x="1000" y="200" as="targetPoint" />
            <Array as="points">
              <mxPoint x="1060" y="230" />
            </Array>
          </mxGeometry>
        </mxCell>
        <mxCell id="Wd9m8drCYMv4-uO5FXAj-34" value="" style="endArrow=classic;html=1;rounded=0;exitX=0.5;exitY=1;exitDx=0;exitDy=0;entryX=0.5;entryY=0;entryDx=0;entryDy=0;" edge="1" parent="1" source="Wd9m8drCYMv4-uO5FXAj-3" target="Wd9m8drCYMv4-uO5FXAj-23">
          <mxGeometry width="50" height="50" relative="1" as="geometry">
            <mxPoint x="950" y="250" as="sourcePoint" />
            <mxPoint x="1000" y="200" as="targetPoint" />
            <Array as="points">
              <mxPoint x="960" y="230" />
              <mxPoint x="780" y="230" />
            </Array>
          </mxGeometry>
        </mxCell>
      </root>
    </mxGraphModel>
  </diagram>
</mxfile>
